<svg width="512" height="512" xmlns="http://www.w3.org/2000/svg" viewBox="0 0 512 512">
  <!-- Background -->
  <rect width="512" height="512" fill="#4ade80" rx="100"/>
  
  <!-- Plant pot -->
  <path d="M 180 380 L 200 460 L 312 460 L 332 380 Z" fill="#a0522d" stroke="#8b4513" stroke-width="4"/>
  
  <!-- Stem -->
  <rect x="246" y="240" width="20" height="150" fill="#22c55e" rx="10"/>
  
  <!-- Leaves - left -->
  <ellipse cx="200" cy="280" rx="60" ry="40" fill="#16a34a" transform="rotate(-30 200 280)"/>
  <ellipse cx="180" cy="340" rx="50" ry="35" fill="#16a34a" transform="rotate(-40 180 340)"/>
  
  <!-- Leaves - right -->
  <ellipse cx="312" cy="280" rx="60" ry="40" fill="#16a34a" transform="rotate(30 312 280)"/>
  <ellipse cx="332" cy="340" rx="50" ry="35" fill="#16a34a" transform="rotate(40 332 340)"/>
  
  <!-- Flower center -->
  <circle cx="256" cy="220" r="30" fill="#fef08a"/>
  
  <!-- Flower petals -->
  <circle cx="256" cy="180" r="22" fill="#fbbf24"/>
  <circle cx="286" cy="195" r="22" fill="#fbbf24"/>
  <circle cx="295" cy="225" r="22" fill="#fbbf24"/>
  <circle cx="286" cy="250" r="22" fill="#fbbf24"/>
  <circle cx="256" cy="260" r="22" fill="#fbbf24"/>
  <circle cx="226" cy="250" r="22" fill="#fbbf24"/>
  <circle cx="217" cy="225" r="22" fill="#fbbf24"/>
  <circle cx="226" cy="195" r="22" fill="#fbbf24"/>
</svg>
